HIERARCHY
ROOT Hips
{
	OFFSET -0.001795 -0.223333 0.028219
	CHANNELS 6 Xposition Yposition Zposition Zrotation Yrotation Xrotation 
	JOINT LeftUpLeg
	{
		OFFSET 0.069520 -0.091406 -0.006815
		CHANNELS 3 Zrotation Yrotation Xrotation
		JOINT LeftLeg
		{
			OFFSET 0.034277 -0.375199 -0.004496
			CHANNELS 3 Zrotation Yrotation Xrotation
			JOINT LeftFoot
			{
				OFFSET -0.013596 -0.397961 -0.043693
				CHANNELS 3 Zrotation Yrotation Xrotation
				JOINT LeftToe
				{
					OFFSET 0.026358 -0.055791 0.119288
					CHANNELS 3 Zrotation Yrotation Xrotation
					End Site
					{
						OFFSET 0.000000 0.000000 0.000000
					}
				}
			}
		}
	}
	JOINT RightUpLeg
	{
		OFFSET -0.067670 -0.090522 -0.004320
		CHANNELS 3 Zrotation Yrotation Xrotation
		JOINT RightLeg
		{
			OFFSET -0.038290 -0.382569 -0.008850
			CHANNELS 3 Zrotation Yrotation Xrotation
			JOINT RightFoot
			{
				OFFSET 0.015774 -0.398415 -0.042312
				CHANNELS 3 Zrotation Yrotation Xrotation
				JOINT RightToe
				{
					OFFSET -0.025372 -0.048144 0.123348
					CHANNELS 3 Zrotation Yrotation Xrotation
					End Site
					{
						OFFSET 0.000000 0.000000 0.000000
					}
				}
			}
		}
	}
	JOINT Spine
	{
		OFFSET -0.002533 0.108963 -0.026696
		CHANNELS 3 Zrotation Yrotation Xrotation
		JOINT Spine1
		{
			OFFSET 0.005487 0.135180 0.001092
			CHANNELS 3 Zrotation Yrotation Xrotation
			JOINT Spine2
			{
				OFFSET 0.001457 0.052922 0.025425
				CHANNELS 3 Zrotation Yrotation Xrotation
				JOINT Neck
				{
					OFFSET -0.002778 0.213870 -0.042857
					CHANNELS 3 Zrotation Yrotation Xrotation
					JOINT Head
					{
						OFFSET 0.005152 0.064970 0.051349
						CHANNELS 3 Zrotation Yrotation Xrotation
						End Site
						{
							OFFSET 0.000000 0.000000 0.000000
						}
					}
				}
				JOINT LeftShoulder
				{
					OFFSET 0.078845 0.121749 -0.034090
					CHANNELS 3 Zrotation Yrotation Xrotation
					JOINT LeftArm
					{
						OFFSET 0.090977 0.030469 -0.008868
						CHANNELS 3 Zrotation Yrotation Xrotation
						JOINT LeftForeArm
						{
							OFFSET 0.259612 -0.012772 -0.027456
							CHANNELS 3 Zrotation Yrotation Xrotation
							JOINT LeftHand
							{
								OFFSET 0.249234 0.008986 -0.001171
								CHANNELS 3 Zrotation Yrotation Xrotation
								End Site
								{
									OFFSET 0.000000 0.000000 0.000000
								}
							}
						}
					}
				}
				JOINT RightShoulder
				{
					OFFSET -0.081759 0.118833 -0.038615
					CHANNELS 3 Zrotation Yrotation Xrotation
					JOINT RightArm
					{
						OFFSET -0.096012 0.032551 -0.009143
						CHANNELS 3 Zrotation Yrotation Xrotation
						JOINT RightForeArm
						{
							OFFSET -0.253742 -0.013329 -0.021401
							CHANNELS 3 Zrotation Yrotation Xrotation
							JOINT RightHand
							{
								OFFSET -0.255298 0.007772 -0.005559
								CHANNELS 3 Zrotation Yrotation Xrotation
								End Site
								{
									OFFSET 0.000000 0.000000 0.000000
								}
							}
						}
					}
				}
			}
		}
	}
}
MOTION
Frames: 11
Frame Time: 0.050000
1.021495 0.896216 0.542368 -173.887848 6.563648 -177.566359 1.209215 -12.656752 11.110392 -14.786180 -12.480013 22.641663 71.746806 -15.821689 14.213600 0.000000 0.000000 0.000000 16.865201 -16.427276 -33.283096 -16.877407 -15.697950 23.400176 84.784949 -5.622288 5.280552 0.000000 0.000000 0.000000 7.189588 -3.688238 12.246722 -0.022271 0.642036 -33.818387 -5.611349 -3.392962 29.469871 3.159691 -13.368803 -25.201716 0.000000 0.000000 0.000000 14.768776 -22.049725 -82.578688 -3.078952 72.277262 -10.032139 -32.714142 2.399919 -8.519290 0.000000 0.000000 0.000000 5.760449 -24.496598 55.676630 45.113701 49.658570 32.697060 -28.397640 30.291743 -5.051683 0.000000 0.000000 0.000000 
1.030603 0.887061 0.504467 -170.286918 4.311036 -176.296118 7.578647 -13.806348 6.165189 -28.283001 -18.874366 34.447414 69.411177 -16.932610 28.158936 0.000000 0.000000 0.000000 18.534682 -13.061513 -30.079043 -16.190372 -19.660320 24.879370 86.574100 0.416909 0.903664 0.000000 0.000000 0.000000 13.176966 -6.269141 10.800758 -1.201036 -0.246946 -35.186778 -5.920095 -0.799574 30.303113 2.040603 -13.635335 -25.911858 0.000000 0.000000 0.000000 18.043630 -21.237734 -82.112958 -22.245408 65.742572 -26.939333 -37.757100 0.446734 -10.521543 0.000000 0.000000 0.000000 1.427784 -23.644692 56.598016 39.709354 51.356142 34.958696 -36.265625 28.001897 -3.817717 0.000000 0.000000 0.000000 
1.041043 0.880907 0.469547 -167.367255 2.781922 -177.065938 13.909804 -14.376647 -2.023008 -63.613918 -24.831411 56.291543 59.632423 -15.691136 62.641006 0.000000 0.000000 0.000000 19.477806 -8.355271 -24.285946 -15.345303 -22.373681 24.438944 96.432676 3.994279 -3.091605 0.000000 0.000000 0.000000 16.838688 -8.417555 9.842168 1.934250 1.420186 -31.674202 -8.791631 4.634789 27.990437 0.142173 -13.737414 -28.448654 0.000000 0.000000 0.000000 22.190649 -27.874370 -70.010576 -37.828408 45.178219 -33.196368 -40.061839 -11.979705 -9.967020 0.000000 0.000000 0.000000 -3.890006 -25.643835 48.945260 36.336045 46.932088 35.581975 -41.432780 31.494724 0.392020 0.000000 0.000000 0.000000 
1.051575 0.879381 0.437099 -166.690824 3.225802 -177.321397 22.410594 -18.524968 -13.044436 -112.298771 -26.020532 65.227205 38.676888 -7.423646 111.714074 0.000000 0.000000 0.000000 19.961183 -5.541402 -20.363081 -15.030945 -23.943341 24.389535 87.958339 10.748995 -4.715247 0.000000 0.000000 0.000000 17.776370 -9.817011 11.211516 3.914606 0.980152 -36.310778 -8.390456 11.188875 29.962788 -0.186882 -17.167976 -25.672432 0.000000 0.000000 0.000000 28.505808 -32.222183 -51.472849 -38.614643 22.074292 -28.870808 -33.649149 -29.359073 -11.977123 0.000000 0.000000 0.000000 -12.644295 -25.967048 47.147725 26.378948 45.476499 31.236016 -45.402586 26.270464 7.504759 0.000000 0.000000 0.000000 
1.061515 0.883343 0.405618 -166.246539 2.748717 -178.425415 30.095030 -23.660630 -23.292254 -138.962821 -32.467868 65.733286 24.079561 8.196795 136.534460 0.000000 0.000000 0.000000 19.706499 -2.568647 -15.186824 -12.191095 -23.892161 21.506251 95.411200 9.997115 -8.584841 0.000000 0.000000 0.000000 19.955132 -12.438567 11.641586 1.131117 -0.898716 -39.145463 -3.797570 15.557774 34.156361 2.758518 -12.965189 -30.980759 0.000000 0.000000 0.000000 36.674388 -28.742092 -44.276938 -31.456953 6.258437 -24.147160 -25.244874 -29.202786 -14.473775 0.000000 0.000000 0.000000 -24.297745 -25.776016 46.518669 18.659083 45.037626 29.910580 -42.833206 12.987909 14.314529 0.000000 0.000000 0.000000 
1.070348 0.892355 0.373896 -166.494359 2.506903 -179.724299 43.012323 -30.850186 -33.516197 -148.998743 -48.714082 64.062589 11.324171 17.956992 139.842480 0.000000 0.000000 0.000000 18.961623 -0.359879 -10.400098 -9.386299 -23.873296 18.992501 108.249366 7.615288 -12.741297 0.000000 0.000000 0.000000 21.190853 -15.900777 13.072333 -2.463368 -3.583304 -40.609592 1.941639 20.501680 34.701923 0.385021 -18.572953 -28.575218 0.000000 0.000000 0.000000 42.205523 -26.215809 -44.028367 -21.011639 2.469186 -16.812755 -16.918230 -24.453662 -12.996587 0.000000 0.000000 0.000000 -31.214029 -26.044808 49.563901 6.802373 41.777890 20.987952 -36.360413 5.209025 15.119126 0.000000 0.000000 0.000000 
1.077644 0.902222 0.341898 -168.312897 1.477031 179.237878 49.095388 -33.266726 -40.561186 -144.461271 -56.966304 61.814581 -2.526991 16.116816 145.288156 0.000000 0.000000 0.000000 17.059990 0.399684 -6.299909 -7.192059 -21.857577 15.826143 135.801999 5.815534 -18.539929 0.000000 0.000000 0.000000 19.170964 -14.137159 13.781575 -3.681990 -2.767115 -37.663704 0.247189 18.373919 31.579145 1.359612 -21.872696 -25.892708 0.000000 0.000000 0.000000 45.141224 -23.956142 -42.366308 -11.409108 1.330716 -9.099935 -8.941562 -19.554489 -10.113030 0.000000 0.000000 0.000000 -33.855592 -25.795632 53.525648 -0.832050 38.036788 13.796364 -31.398297 -1.560323 14.091320 0.000000 0.000000 0.000000 
1.083169 0.911815 0.309780 -171.132278 2.293065 176.824438 43.615287 -30.614293 -37.750816 -120.242876 -55.165202 50.753521 -17.695113 0.503748 153.709130 0.000000 0.000000 0.000000 14.083346 -0.396354 -0.153187 -5.164726 -19.879694 13.118209 148.417856 6.727503 -20.795176 0.000000 0.000000 0.000000 12.672399 -11.314267 17.875628 -0.967311 -1.244598 -37.619779 -2.329208 15.986500 30.413709 -0.789279 -28.690563 -20.049252 0.000000 0.000000 0.000000 47.739754 -17.945094 -40.213866 -7.129255 -0.050716 -5.757814 -4.196349 -12.821129 -6.209177 0.000000 0.000000 0.000000 -33.947254 -24.494619 58.945464 -6.911998 33.795085 7.885106 -28.741547 -5.203961 13.097775 0.000000 0.000000 0.000000 
1.086987 0.920228 0.277345 -173.632446 3.848694 175.382080 36.571611 -26.940626 -32.421732 -87.869772 -50.254725 34.214527 -41.248642 -13.025995 172.235627 0.000000 0.000000 0.000000 11.125012 -2.481916 3.953917 -5.002128 -18.095762 12.560335 162.785325 3.356925 -21.933723 0.000000 0.000000 0.000000 6.395530 -10.124198 21.007979 3.029565 0.902926 -35.686443 -5.717460 16.355160 27.019793 -1.163625 -32.857717 -15.074615 0.000000 0.000000 0.000000 49.437603 -14.107600 -32.827187 -5.259031 -0.457505 -3.427671 1.363134 -5.374607 -3.134386 0.000000 0.000000 0.000000 -31.385762 -22.805823 62.953581 -10.823728 29.737641 4.011607 -27.089947 -9.104483 12.338982 0.000000 0.000000 0.000000 
1.089153 0.925911 0.244340 -175.198278 3.588132 176.696970 31.128890 -24.086444 -31.892256 -58.443561 -39.649555 21.190675 -52.125873 -32.625853 -172.159321 0.000000 0.000000 0.000000 9.091977 -3.701604 5.027010 -4.967784 -16.870445 12.076008 161.830413 3.068965 -23.329089 0.000000 0.000000 0.000000 3.436975 -6.050066 17.898535 0.120410 -0.507045 -37.435117 0.912874 12.982164 31.985192 -8.201262 -40.451678 -10.348127 0.000000 0.000000 0.000000 51.108511 -21.325920 -45.509138 -0.397224 9.482586 -1.007911 0.792497 -2.059041 -1.619408 0.000000 0.000000 0.000000 -34.472605 -25.834106 76.362795 -17.691775 28.751055 2.674520 -25.694177 -16.681244 14.965400 0.000000 0.000000 0.000000 
1.089594 0.928009 0.210477 -175.968730 4.727516 177.553867 27.299936 -21.735411 -29.319232 -39.386944 -31.166370 11.058067 -59.837385 -49.698790 -160.875213 0.000000 0.000000 0.000000 7.606520 -4.643657 6.124211 -5.395898 -17.509821 13.414376 159.575938 0.439425 -22.514098 0.000000 0.000000 0.000000 -1.255452 -4.758453 17.206596 6.381580 -0.049397 -39.745173 0.766023 14.307668 34.532060 -12.732268 -42.993786 -6.393063 0.000000 0.000000 0.000000 50.446975 -19.311483 -43.743360 -5.527512 9.365980 -3.168722 0.608091 -0.544216 -1.147830 0.000000 0.000000 0.000000 -33.926276 -24.415508 75.931421 -17.760835 28.993465 2.715392 -27.596820 -17.642125 16.401493 0.000000 0.000000 0.000000 
